<svg width="23" height="21" viewBox="0 0 23 21" fill="none" xmlns="http://www.w3.org/2000/svg">
<path d="M19.8649 13.4909C21.2085 11.9057 21.919 10.5 21.919 10.5C21.919 10.5 18.1843 3.11111 11.6487 3.11111C11.2983 3.11111 10.9559 3.13236 10.6217 3.17257C10.2702 3.21485 9.9278 3.27812 9.59463 3.35972M11.6487 7.33333C12.0088 7.33333 12.3545 7.39682 12.6757 7.51353C13.5512 7.83154 14.245 8.54469 14.5545 9.44444C14.6679 9.77462 14.7298 10.1299 14.7298 10.5M2.40545 1L20.8919 20M11.6487 13.6667C11.2886 13.6667 10.9429 13.6031 10.6217 13.4865C9.74622 13.1684 9.05234 12.4553 8.74292 11.5556C8.68455 11.3858 8.63985 11.2094 8.6102 11.0278M3.58346 7.33333C3.26688 7.69698 2.98298 8.05366 2.7327 8.38889C1.84352 9.57977 1.37842 10.5 1.37842 10.5C1.37842 10.5 5.11306 17.8889 11.6487 17.8889C11.9991 17.8889 12.3415 17.8677 12.6757 17.8275" stroke="#ABABAB" stroke-width="1.58333" stroke-linecap="round" stroke-linejoin="round"/>
</svg>
