<svg width="193" height="199" viewBox="0 0 193 199" fill="none" xmlns="http://www.w3.org/2000/svg">
<path fillRule="evenodd" clipRule="evenodd" d="M72.3958 0.476685H36.1436V66.9576L72.3958 38.6343V0.476685ZM156.856 32.7775L72.3958 98.7654V122.828H36.1436V80.7316L37.5665 79.6199L37.5613 79.6133L123.508 12.4641H156.19L156.856 13.3173V32.7775ZM119.999 75.7579L156.856 46.9618V86.2897H156.856V122.828H119.999V86.2897H119.999V75.7579Z" fill="url(#paint0_linear_73_82)"/>
<path d="M4.95313 186.828H10.1531V173.388H24.9531V186.828H30.1531V156.828H24.9531V168.588H10.1531V156.828H4.95313V186.828ZM34.3563 166.828L42.8763 186.828L39.5163 195.628H44.4362L55.4763 166.828H50.4763L45.3963 180.628L39.6763 166.828H34.3563ZM58.6797 166.828V195.628H63.4797V184.548C65.0797 186.228 67.1997 187.228 69.7197 187.228C75.2797 187.228 79.5197 182.828 79.5197 176.828C79.5197 170.828 75.2797 166.428 69.7197 166.428C67.1197 166.428 64.9197 167.468 63.3197 169.268L63.0797 166.828H58.6797ZM68.9997 170.828C72.3197 170.828 74.5197 173.228 74.5197 176.828C74.5197 180.428 72.3197 182.828 68.9997 182.828C65.6797 182.828 63.4797 180.428 63.4797 176.828C63.4797 173.228 65.6797 170.828 68.9997 170.828ZM82.4722 176.908C82.4722 182.868 86.3922 187.228 92.9122 187.228C97.6322 187.228 101.632 184.868 102.512 180.828L98.0722 180.028C97.5522 181.828 95.5922 183.028 92.9122 183.028C89.9122 183.028 87.7522 181.468 87.3522 178.068H102.432C102.552 177.348 102.632 176.588 102.632 175.908C102.632 170.268 98.6322 166.428 92.8322 166.428C86.7522 166.428 82.4722 170.868 82.4722 176.908ZM92.8722 170.428C95.6322 170.428 97.3522 171.748 97.9122 174.268H87.5122C88.0722 171.748 89.9122 170.428 92.8722 170.428ZM108.273 186.828H113.473V173.908H123.513V169.228H113.473V161.508H127.113V156.828H108.273V186.828ZM141.543 186.828H145.783V174.148C145.783 169.388 142.543 166.428 137.303 166.428C131.983 166.428 128.663 169.108 128.063 172.788L132.463 173.628C132.943 171.548 134.423 170.468 136.943 170.468C139.183 170.468 140.663 171.348 141.063 173.588L135.703 174.668C131.423 175.548 128.103 177.228 128.103 181.308C128.103 185.108 130.943 187.228 134.583 187.228C137.383 187.228 139.703 185.988 141.223 183.948L141.543 186.828ZM132.943 181.028C132.943 179.468 134.063 178.788 135.863 178.388L141.143 177.188V177.668C141.143 181.428 138.223 183.228 135.423 183.228C133.903 183.228 132.943 182.468 132.943 181.028ZM151.375 186.828H156.175V175.508C156.175 171.948 158.655 170.868 160.815 170.868C163.215 170.868 165.015 172.428 165.015 175.508V186.828H169.815V174.788C169.815 169.268 166.215 166.428 161.975 166.428C159.415 166.428 157.415 167.468 156.015 168.948L155.775 166.828H151.375V186.828ZM182.239 187.228C187.879 187.228 190.799 184.348 190.799 180.668C190.799 175.988 186.839 175.068 183.479 174.548C181.039 174.188 178.879 173.988 178.879 172.348C178.879 171.108 179.919 170.228 181.999 170.228C184.519 170.228 185.519 171.508 185.799 172.868L190.279 171.908C189.799 168.628 186.919 166.428 182.159 166.428C177.279 166.428 174.079 169.028 174.079 172.588C174.079 177.268 177.759 178.228 181.039 178.708C183.599 179.108 185.959 179.228 185.959 180.948C185.959 182.508 184.679 183.348 182.479 183.348C180.079 183.348 178.599 182.308 178.239 180.348L173.479 181.308C174.279 185.068 177.079 187.228 182.239 187.228Z" fill="black"/>
<defs>
<linearGradient id="paint0_linear_73_82" x1="31.7746" y1="0.476687" x2="210.125" y2="127.763" gradientUnits="userSpaceOnUse">
<stop stopColor="#FF6644"/>
<stop offset="0.796432" stopColor="#FF485C"/>
<stop offset="1" stopColor="#FF1A6C"/>
</linearGradient>
</defs>
</svg>
